<svg width="219" height="219" viewBox="0 0 205 205" fill="none" xmlns="http://www.w3.org/2000/svg">
<path id="Star 1" d="M88.5873 6.47191C96.3425 -1.03755 108.658 -1.03754 116.413 6.47191L117.806 7.82132C122.775 12.6322 129.876 14.5349 136.584 12.8527L138.465 12.3809C148.936 9.75509 159.601 15.9126 162.563 26.2936L163.095 28.159C164.992 34.8095 170.191 40.0078 176.841 41.9051L178.706 42.4372C189.087 45.3986 195.245 56.0638 192.619 66.5347L192.147 68.4163C190.465 75.1244 192.368 82.2255 197.179 87.1938L198.528 88.5873C206.038 96.3425 206.038 108.658 198.528 116.413L197.179 117.806C192.368 122.775 190.465 129.876 192.147 136.584L192.619 138.465C195.245 148.936 189.087 159.601 178.706 162.563L176.841 163.095C170.191 164.992 164.992 170.191 163.095 176.841L162.563 178.706C159.601 189.087 148.936 195.245 138.465 192.619L136.584 192.147C129.876 190.465 122.775 192.368 117.806 197.179L116.413 198.528C108.658 206.038 96.3425 206.038 88.5873 198.528L87.1937 197.179C82.2255 192.368 75.1243 190.465 68.4163 192.147L66.5347 192.619C56.0638 195.245 45.3986 189.087 42.4372 178.706L41.9051 176.841C40.0078 170.191 34.8095 164.992 28.159 163.095L26.2936 162.563C15.9126 159.601 9.75509 148.936 12.3809 138.465L12.8527 136.584C14.5349 129.876 12.6322 122.775 7.82131 117.806L6.47191 116.413C-1.03755 108.658 -1.03754 96.3425 6.47191 88.5873L7.82132 87.1937C12.6322 82.2255 14.5349 75.1243 12.8527 68.4163L12.3809 66.5347C9.75509 56.0638 15.9126 45.3986 26.2936 42.4372L28.159 41.9051C34.8095 40.0078 40.0078 34.8095 41.9051 28.159L42.4372 26.2936C45.3986 15.9126 56.0638 9.75509 66.5347 12.3809L68.4163 12.8527C75.1244 14.5349 82.2255 12.6322 87.1938 7.82131L88.5873 6.47191Z" fill="#D9D9D9"/>
</svg>
